<svg xmlns="http://www.w3.org/2000/svg" width="64" height="64" viewBox="0 0 64 64" fill="none">
  <rect width="64" height="64" rx="14" fill="#F3F0FF"/>
  <!-- Simple lily mark -->
  <path d="M32 14c-2.6 5.5-2.9 9.6-1.4 13.4 1.3-3 3.5-5.6 6.9-7.7C35.9 17.3 34.1 15.4 32 14Z" fill="#6D28D9"/>
  <path d="M22.6 20.8c5.6 1 9.2 3.3 11.4 6.7-.4-3.6-2.1-7-5.8-10.1-2.1 1-4 2.1-5.6 3.4Z" fill="#7C3AED"/>
  <path d="M41.4 20.8c-1.7-1.3-3.6-2.4-5.6-3.4-3.7 3.1-5.4 6.5-5.8 10.1 2.2-3.4 5.8-5.7 11.4-6.7Z" fill="#7C3AED"/>
  <path d="M18 33c0-6.9 6.5-10.9 14-10.9S46 26.1 46 33c0 8.4-6.7 18-14 18S18 41.4 18 33Z" fill="#FFFFFF" stroke="#E6E1F7" stroke-width="1.5"/>
  <path d="M32 26c-2.6 2.5-4.3 5.3-4.3 8.1 0 4.3 2.6 7.8 4.3 9.9 1.7-2.1 4.3-5.6 4.3-9.9 0-2.8-1.7-5.6-4.3-8.1Z" fill="#6D28D9" opacity="0.12"/>
  <path d="M32 28.5c-1.3 2-2.2 4-2.2 5.9 0 3 1.4 5.4 2.2 6.8.8-1.4 2.2-3.8 2.2-6.8 0-1.9-.9-3.9-2.2-5.9Z" fill="#6D28D9" opacity="0.18"/>
  <circle cx="32" cy="33.5" r="2.2" fill="#6D28D9"/>
</svg>